<?xml version="1.0" standalone="no"?><!DOCTYPE svg PUBLIC "-//W3C//DTD SVG 1.1//EN" "http://www.w3.org/Graphics/SVG/1.1/DTD/svg11.dtd"><svg t="1632040687584" class="icon" viewBox="0 0 1024 1024" version="1.1" xmlns="http://www.w3.org/2000/svg" p-id="3025" xmlns:xlink="http://www.w3.org/1999/xlink" width="200" height="200"><defs><style type="text/css"></style></defs><path d="M730.40000033 50.00000033c-83.99999967 0-163.8 42.00000033-218.40000033 113.4C457.39999967 91.99999967 377.60000033 50.00000033 293.59999967 50.00000033 138.20000033 50.00000033 12.20000033 184.4 12.20000033 352.40000033c0 100.8 46.19999967 172.19999967 79.79999934 226.8 105.00000033 163.8 369.60000033 369.60000033 382.20000033 378 12.6 8.39999967 25.2 12.6 37.8 12.6 12.6 0 25.2-4.20000033 37.8-12.6 12.6-8.39999967 272.99999967-214.2 382.20000033-378 37.8-54.60000033 79.80000033-126 79.79999934-226.8-4.20000033-168.00000033-130.20000033-302.4-281.39999934-302.4z" fill="#fb7299" p-id="3026"></path></svg>