<?xml version="1.0" standalone="no"?><!DOCTYPE svg PUBLIC "-//W3C//DTD SVG 1.1//EN" "http://www.w3.org/Graphics/SVG/1.1/DTD/svg11.dtd"><svg t="1632120729561" class="icon" viewBox="0 0 1024 1024" version="1.1" xmlns="http://www.w3.org/2000/svg" p-id="15151" xmlns:xlink="http://www.w3.org/1999/xlink" width="200" height="200"><defs><style type="text/css"></style></defs><path d="M8.723418 605.489888a511.932626 511.932626 0 1 0 1006.665129-186.883314 511.932626 511.932626 0 1 0-1006.665129 186.883314Z" fill="#FF4C72" p-id="15152"></path><path d="M787.743106 478.60892L550.791433 241.657248c-7.678989-7.678989-18.100475-12.249816-29.618959-12.249817-11.518484 0-22.122803 4.75366-29.618959 12.249817L254.601843 478.60892a42.051609 42.051609 0 0 0 59.420751 59.420751l165.281105-165.281105v398.21045a42.051609 42.051609 0 0 0 84.103217 0V372.748566l165.281105 165.281105a42.051609 42.051609 0 0 0 71.670568-29.801792c-0.182833-11.518484-4.936493-21.93997-12.615483-29.618959z" fill="#FFFFFF" p-id="15153"></path></svg>