<?xml version="1.0" standalone="no"?><!DOCTYPE svg PUBLIC "-//W3C//DTD SVG 1.1//EN" "http://www.w3.org/Graphics/SVG/1.1/DTD/svg11.dtd"><svg t="1631938918774" class="icon" viewBox="0 0 1024 1024" version="1.1" xmlns="http://www.w3.org/2000/svg" p-id="2209" xmlns:xlink="http://www.w3.org/1999/xlink" width="200" height="200"><defs><style type="text/css"></style></defs><path d="M512 1024Q0 1024 0 512T512 0q512 0 512 512T512 1024z" fill="#EA7A7A" p-id="2210"></path><path d="M1024 512v-15.825455l-252.509091-252.50909-418.909091 67.141818-103.563636 455.214545L506.88 1024H512q512 0 512-512z" fill="#CE5B5B" p-id="2211"></path><path d="M756.363636 244.363636H267.636364a23.272727 23.272727 0 0 0-23.272728 23.272728v488.727272a23.272727 23.272727 0 0 0 23.272728 23.272728h488.727272a23.272727 23.272727 0 0 0 23.272728-23.272728V267.636364a23.272727 23.272727 0 0 0-23.272728-23.272728zM631.621818 479.534545a58.181818 58.181818 0 0 1-58.181818 58.181819h-128a58.181818 58.181818 0 0 1-58.181818-58.181819v-139.636363a17.570909 17.570909 0 0 1 0-3.490909v-2.327273a17.338182 17.338182 0 0 1 32.814545 0h1.861818a23.272727 23.272727 0 0 0-0.814545 5.818182v139.636363a23.272727 23.272727 0 0 0 23.272727 23.272728h128a23.272727 23.272727 0 0 0 23.272728-23.272728v-139.636363a23.272727 23.272727 0 0 0-0.814546-5.818182h1.861818a17.338182 17.338182 0 0 1 32.814546 0v2.327273a17.570909 17.570909 0 0 1 0 3.490909z" fill="#FFFFFF" p-id="2212"></path></svg>