<?xml version="1.0" standalone="no"?><!DOCTYPE svg PUBLIC "-//W3C//DTD SVG 1.1//EN" "http://www.w3.org/Graphics/SVG/1.1/DTD/svg11.dtd"><svg t="1624356220520" class="icon" viewBox="0 0 1024 1024" version="1.1" xmlns="http://www.w3.org/2000/svg" p-id="2360" xmlns:xlink="http://www.w3.org/1999/xlink" width="200" height="200"><defs><style type="text/css"></style></defs><path d="M909.8 264.5c-14.9-18-37.8-28.4-62.8-28.4H311.4l-5.4-28.6c-9.2-48.8-55.1-87.1-104.6-87.1h-80.8c-12.7 0-23.1 10.4-23.1 23.1 0 12.8 10.3 23.1 23.1 23.1h80.8c27.1 0 54.2 22.6 59.3 49.4L349 682.6c9.1 48.8 55.1 87.1 104.6 87.1h381.9c12.7 0 23.1-10.3 23.1-23.1s-10.3-23.1-23.1-23.1h-382c-27.1 0-54.3-22.6-59.3-49.4l-4.1-21.4h387.6c49.5 0 95.5-38.3 104.6-87.1L926 331.8c4.7-24.8-1.3-49.3-16.2-67.3z m-29 58.7l-43.7 233.7c-5 26.8-32.1 49.3-59.3 49.3H381.4l-61.3-323.9H847c11.4 0 21.1 4.1 27.4 11.7 6.2 7.6 8.4 17.9 6.4 29.2zM398.7 814.5c-25.5 0-46.1 20.7-46.1 46.3 0 25.6 20.6 46.3 46.1 46.3s46.1-20.7 46.1-46.3c0-25.6-20.6-46.3-46.1-46.3z m416.5 0c-25.5 0-46.1 20.7-46.1 46.3 0 25.6 20.6 46.3 46.1 46.3s46.1-20.7 46.1-46.3c0-25.6-20.7-46.3-46.1-46.3z" p-id="2361"></path></svg>