<?xml version="1.0" standalone="no"?><!DOCTYPE svg PUBLIC "-//W3C//DTD SVG 1.1//EN" "http://www.w3.org/Graphics/SVG/1.1/DTD/svg11.dtd"><svg t="1632126580436" class="icon" viewBox="0 0 1024 1024" version="1.1" xmlns="http://www.w3.org/2000/svg" p-id="41963" xmlns:xlink="http://www.w3.org/1999/xlink" width="200" height="200"><defs><style type="text/css"></style></defs><path d="M971.48297021 790.84782599H247.13135598c-21.46649158 0-41.60320049-8.35863387-56.61074774-23.55615007-15.00754721-15.19751616-23.36618111-35.14425613-23.1762121-56.61074771l2.6595653-533.43281739c0-21.27652264-7.40878914-35.52419405-44.26276584-41.41323154h-0.18996767l-106.38261314-18.23701941c-10.2583234-1.70972056-17.28717464-11.58814406-15.5774541-21.84642949 1.70972056-10.2583234 11.58814406-17.28717464 21.84642949-15.57745411l106.1926442 18.23701944c50.53174124 7.97869597 76.17754975 34.57434928 76.1775498 79.02708404L205.14948404 711.06086611c0 11.20813016 4.17931697 21.65646052 12.15801294 29.44518757 7.97869597 7.97869597 18.42698835 12.34798187 29.63515649 12.3479819h724.35161424c10.44829236 0 18.99689523 8.54860287 18.99689519 18.99689517s-8.35863387 18.99689523-18.80692624 18.99689524Z" fill="#d81e06" p-id="41964"></path><path d="M917.34181886 681.80564747l-670.78036974-2.08965845c-21.08655369-0.18996895-40.84332468-8.35863387-55.66090295-23.3661811-14.81757826-15.00754721-22.79627425-34.76431823-22.79627424-55.8508719l2.08965846-393.99560661L929.11989388 263.11407713c34.38438034 1.32978267 61.35997148 29.2552186 61.35997152 63.63959894V608.8575699c0 40.27341782-32.86462868 72.94807758-73.13804654 72.94807757ZM246.941387 641.72219859l670.5904008 2.08965849c19.37683313 0 35.14425613-15.76742303 35.14425615-34.95428718V326.75367607c0-13.8677335-11.01819923-25.26587062-24.88593271-25.64580854h-0.75987582l-718.65254565-53.57124446-1.70972059 353.34225083c0 10.82823027 4.17931697 21.08655369 11.77803704 28.87528076 7.2188202 7.59875809 17.4771436 11.968044 28.49534279 11.96804393Z" fill="#d81e06" p-id="41965"></path><path d="M320.84057582 853.53758017m-70.85841909 0a70.85841913 70.85841913 0 1 0 141.71683822 0 70.85841913 70.85841913 0 1 0-141.71683822 0Z" fill="#d81e06" p-id="41966"></path><path d="M320.84057582 943.39289449c-49.58189649 0-89.85531433-40.27341782-89.85531432-89.85531432s40.27341782-89.85531433 89.85531432-89.85531433c49.58189649 0 89.85531433 40.27341782 89.85531434 89.85531433s-40.27341782 89.85531433-89.85531434 89.85531432Zm0-141.71683824c-28.68531178 0-51.86152393 23.17621215-51.8615239 51.86152392s23.17621215 51.86152393 51.8615239 51.8615239 51.86152393-23.17621215 51.86152392-51.8615239-23.17621215-51.86152393-51.86152392-51.86152392Z" fill="#d81e06" p-id="41967"></path><path d="M864.72041914 853.53758017m-70.85841913 0a70.85841913 70.85841913 0 1 0 141.71683825 0 70.85841913 70.85841913 0 1 0-141.71683825 0Z" fill="#d81e06" p-id="41968"></path><path d="M864.72041914 943.39289449c-49.58189649 0-89.85531433-40.27341782-89.85531434-89.85531432s40.27341782-89.85531433 89.85531434-89.85531433 89.85531433 40.27341782 89.85531433 89.85531433-40.27341782 89.85531433-89.85531433 89.85531432Zm0-141.71683824c-28.68531178 0-51.86152393 23.17621215-51.86152391 51.86152392s23.17621215 51.86152393 51.86152391 51.8615239 51.86152393-23.17621215 51.8615239-51.8615239-23.17621215-51.86152393-51.8615239-51.86152392Z" fill="#d81e06" p-id="41969"></path><path d="M750.73904789 428.1970965H363.58359006c-10.44829236 0-18.99689523-8.54860287-18.99689524-18.9968952s8.54860287-18.99689523 18.99689524-18.99689523h387.15672429c10.44829236 0 18.99689523 8.54860287 18.9968952 18.99689523s-8.54860287 18.99689523-18.9968952 18.9968952ZM750.73904789 537.42924393H363.58359006c-10.44829236 0-18.99689523-8.54860287-18.99689524-18.99689519s8.54860287-18.99689523 18.99689524-18.99689524h387.15672429c10.44829236 0 18.99689523 8.54860287 18.9968952 18.99689524s-8.54860287 18.99689523-18.9968952 18.99689519Z" fill="#d81e06" p-id="41970"></path></svg>