<?xml version="1.0" standalone="no"?><!DOCTYPE svg PUBLIC "-//W3C//DTD SVG 1.1//EN" "http://www.w3.org/Graphics/SVG/1.1/DTD/svg11.dtd"><svg t="1632126828427" class="icon" viewBox="0 0 1024 1024" version="1.1" xmlns="http://www.w3.org/2000/svg" p-id="49751" xmlns:xlink="http://www.w3.org/1999/xlink" width="200" height="200"><defs><style type="text/css"></style></defs><path d="M999.419367 950.582871a507.878606 507.878606 0 0 0-245.747713-348.142593 401.951102 401.951102 0 0 0-44.336983-22.117294 614.369282 614.369282 0 0 0-234.893855-42.186691C252.807097 555.850607 68.905892 724.290185 24.568909 950.326884a60.822559 60.822559 0 0 0 11.161042 51.19744 62.20489 62.20489 0 0 0 46.333683 22.168491h857.557123v0.307185a62.768062 62.768062 0 0 0 46.487275-22.219689 55.498025 55.498025 0 0 0 13.311335-51.19744zM512.122131 509.824109a254.912054 254.912054 0 0 0 254.963252-254.758462 254.860857 254.860857 0 0 0-509.721714 0 254.80966 254.80966 0 0 0 254.758462 254.758462z" fill="#FF607C" p-id="49752"></path></svg>