<?xml version="1.0" standalone="no"?><!DOCTYPE svg PUBLIC "-//W3C//DTD SVG 1.1//EN" "http://www.w3.org/Graphics/SVG/1.1/DTD/svg11.dtd"><svg t="1632312279715" class="icon" viewBox="0 0 1280 1024" version="1.1" xmlns="http://www.w3.org/2000/svg" p-id="14537" xmlns:xlink="http://www.w3.org/1999/xlink" width="250" height="200"><defs><style type="text/css"></style></defs><path d="M999.232 462.912c68.48 40.896 152.32 151.04 187.264 283.776 34.944 132.736 29.12 251.52 29.12 251.52s-45.184-73.152-63.552-98.816c-18.304-25.6-95.552-121.216-215.424-176.64-119.936-55.36-320.32-45.44-320.32-45.44v255.552a40 40 0 0 1-67.072 29.44L95.744 545.088a40 40 0 0 1-0.192-58.688L548.992 62.848a40 40 0 0 1 67.328 29.248v264.512s132.672 9.984 202.048 24.384c116.8 24.32 180.864 81.92 180.864 81.92z" fill="#f294a1" p-id="14538"></path></svg>
