<?xml version="1.0" standalone="no"?><!DOCTYPE svg PUBLIC "-//W3C//DTD SVG 1.1//EN" "http://www.w3.org/Graphics/SVG/1.1/DTD/svg11.dtd"><svg t="1632659824524" class="icon" viewBox="0 0 1024 1024" version="1.1" xmlns="http://www.w3.org/2000/svg" p-id="7253" xmlns:xlink="http://www.w3.org/1999/xlink" width="200" height="200"><defs><style type="text/css"></style></defs><path d="M645.9072 736.0448H378.0928C328.4096 736.0448 288 699.2704 288 654.08V505.184a31.9424 31.9424 0 0 1 63.8912 0V654.08c0 10.1056 12.0064 18.6432 26.24 18.6432h267.8144c14.208 0 26.24-8.5376 26.24-18.6432V505.6832a31.9488 31.9488 0 0 1 63.8912 0V654.08c-0.0768 45.1904-40.4864 81.9648-90.1696 81.9648z" fill="#FFCA1E" p-id="7254"></path><path d="M242.496 485.8688a120.64 120.64 0 0 0 178.432 0 120.64 120.64 0 0 0 178.432 0 120.6912 120.6912 0 0 0 180.2944-2.048A121.0944 121.0944 0 0 0 992 403.9808a31.4304 31.4304 0 0 0-1.0432-7.68 31.4368 31.4368 0 0 0-2.2784-9.9136L888.32 149.6576A140.8512 140.8512 0 0 0 758.4512 64H260.7616a140.544 140.544 0 0 0-130.6432 87.4624L36.5696 380.0512a31.7184 31.7184 0 0 0-2.368 12.5504A31.5968 31.5968 0 0 0 32 403.9808a121.5168 121.5168 0 0 0 84.9472 115.744v299.7696A140.96 140.96 0 0 0 258.0288 960h502.0608a140.96 140.96 0 0 0 141.0816-140.5184V639.6992a32.0512 32.0512 0 0 0-64.1024 0v179.7952a76.9088 76.9088 0 0 1-76.9792 76.6656H258.0288a76.9088 76.9088 0 0 1-76.9728-76.6656v-297.536a121.1392 121.1392 0 0 0 61.44-36.0896zM96.1152 403.9808v-0.224l93.3632-228.192a76.6848 76.6848 0 0 1 71.2832-47.7312h497.6896a76.8384 76.8384 0 0 1 70.8544 46.72l98.432 232.2816a57.12 57.12 0 0 1-114.1824-2.8288 32 32 0 0 0-32.0512-31.9232c-0.64 0-1.2288 0.1472-1.856 0.1856s-1.2224-0.1856-1.8624-0.1856a32 32 0 0 0-32.0512 31.9232 57.1648 57.1648 0 1 1-114.3296 0 32.0512 32.0512 0 0 0-64.1024 0 57.1648 57.1648 0 1 1-114.3232 0 32.0512 32.0512 0 0 0-64.1088 0 57.1648 57.1648 0 1 1-114.3232 0 32.0512 32.0512 0 0 0-64.1024 0 57.1648 57.1648 0 1 1-114.3296-0.0256z" fill="#FB3F50" p-id="7255"></path></svg>